<svg width="24" height="25" viewBox="0 0 24 25" fill="none" xmlns="http://www.w3.org/2000/svg">
<path fill-rule="evenodd" clip-rule="evenodd" d="M21.0038 8.58746V19.503C21.0038 20.608 20.108 21.5038 19.003 21.5038H4.99717C3.89215 21.5038 2.99634 20.608 2.99634 19.503V8.58746C2.99596 8.31615 3.05076 8.0476 3.15741 7.79813L4.47796 4.70784C4.7937 3.97239 5.51736 3.49586 6.31773 3.49634H17.6825C18.4835 3.49634 19.2074 3.97421 19.5222 4.71084L20.8428 7.79813C20.9493 8.04765 21.0041 8.31617 21.0038 8.58746Z" stroke="#144A19" stroke-width="1.5" stroke-linecap="round" stroke-linejoin="round"/>
<path d="M2.99634 8.4985H20.9938" stroke="#144A19" stroke-width="1.5" stroke-linecap="round" stroke-linejoin="round"/>
<path d="M14.0009 3.49634L15.0013 8.49842V11.7248C14.9765 12.1758 14.5921 12.5222 14.1409 12.5001H9.85914C9.40793 12.5222 9.02355 12.1758 8.99878 11.7248V8.49842L9.9992 3.49634" stroke="#144A19" stroke-width="1.5" stroke-linecap="round" stroke-linejoin="round"/>
<path d="M5.99756 18.5026H7.99839" stroke="#144A19" stroke-width="1.5" stroke-linecap="round" stroke-linejoin="round"/>
</svg>
