<svg width="181" height="181" viewBox="0 0 181 181" fill="none" xmlns="http://www.w3.org/2000/svg">
<rect x="0.5" y="0.0664062" width="180" height="180" rx="90" fill="#CDE7CB"/>
<path d="M60.9684 73.6607C60.4696 73.6607 59.9709 73.5492 59.4984 73.3129C57.8775 72.5057 57.2212 70.5304 58.035 68.9095L71.16 42.6595C71.9737 41.0385 73.9359 40.3889 75.5634 41.1895C77.1843 42.0032 77.8406 43.972 77.0334 45.5929L63.9084 71.8429C63.3243 72.9979 62.1693 73.6607 60.9684 73.6607Z" fill="#090B09"/>
<path d="M120.031 73.6608C118.83 73.6608 117.675 72.9979 117.097 71.8495L103.972 45.5995C103.165 43.9786 103.821 42.0098 105.442 41.1961C107.063 40.3954 109.032 41.0451 109.846 42.6661L122.971 68.9161C123.778 70.537 123.122 72.5058 121.501 73.3195C121.022 73.5492 120.523 73.6608 120.031 73.6608Z" fill="#090B09"/>
<path d="M135.749 81.4834C135.125 80.6893 134.167 80.2234 133.157 80.2234H47.844C46.8334 80.2234 45.8818 80.6893 45.2584 81.4834C44.635 82.2775 44.4184 83.3209 44.6612 84.2987L57.7862 136.799C58.1537 138.262 59.4662 139.286 60.969 139.286H120.032C121.534 139.286 122.853 138.262 123.214 136.799L136.339 84.2987C136.582 83.3209 136.366 82.2775 135.749 81.4834Z" fill="#144A19"/>
<path d="M139.719 67.0981H41.2812C39.47 67.0981 38 68.5681 38 70.3794V83.5044C38 85.3156 39.47 86.7856 41.2812 86.7856H139.719C141.53 86.7856 143 85.3156 143 83.5044V70.3794C143 68.5681 141.53 67.0981 139.719 67.0981Z" fill="#3FA549"/>
<path d="M90.5 126.161C88.6888 126.161 87.2188 124.691 87.2188 122.879V103.192C87.2188 101.381 88.6888 99.9106 90.5 99.9106C92.3112 99.9106 93.7812 101.381 93.7812 103.192V122.879C93.7812 124.691 92.3112 126.161 90.5 126.161Z" fill="#FAFAFA"/>
<path d="M74.0938 126.161C72.2825 126.161 70.8125 124.691 70.8125 122.879V103.192C70.8125 101.381 72.2825 99.9106 74.0938 99.9106C75.905 99.9106 77.375 101.381 77.375 103.192V122.879C77.375 124.691 75.905 126.161 74.0938 126.161Z" fill="#FAFAFA"/>
<path d="M106.906 126.161C105.095 126.161 103.625 124.691 103.625 122.879V103.192C103.625 101.381 105.095 99.9106 106.906 99.9106C108.717 99.9106 110.188 101.381 110.188 103.192V122.879C110.188 124.691 108.717 126.161 106.906 126.161Z" fill="#FAFAFA"/>
</svg>
