<svg width="32" height="32" viewBox="0 0 32 32" fill="none" xmlns="http://www.w3.org/2000/svg">
<g clip-path="url(#clip0_56_3865)">
<path d="M15.5 5L17 4.5L16 6V6.15C15.507 6.04491 15.004 5.99461 14.5 6C13.996 5.99461 13.493 6.04491 13 6.15V6L12 4.5L13.475 5L14.5 4L15.5 5Z" fill="#628C1B"/>
<path d="M14.5 5.9999C15.004 5.99451 15.507 6.04482 16 6.1499C17.465 6.4599 18.5 7.3199 18.5 8.9999C18.5 10.0608 18.0786 11.0782 17.3284 11.8283C16.5783 12.5785 15.5609 12.9999 14.5 12.9999C13.4391 12.9999 12.4217 12.5785 11.6716 11.8283C10.9214 11.0782 10.5 10.0608 10.5 8.9999C10.5 7.3199 11.535 6.4599 13 6.1499C13.493 6.04482 13.996 5.99451 14.5 5.9999Z" fill="#99343B"/>
<path d="M15.75 11.4999H15.25C14.5504 11.4968 13.8783 11.2271 13.3706 10.7459C12.8628 10.2646 12.5576 9.60791 12.517 8.90949C12.4764 8.21108 12.7035 7.52345 13.1521 6.9866C13.6007 6.44976 14.237 6.10407 14.9315 6.0199C14.788 6.0124 14.65 5.9999 14.5 5.9999C13.996 5.99451 13.493 6.04482 13 6.1499C11.535 6.4599 10.5 7.3199 10.5 8.9999C10.5 10.0608 10.9214 11.0782 11.6716 11.8283C12.4217 12.5785 13.4391 12.9999 14.5 12.9999C15.5609 12.9999 16.5783 12.5785 17.3284 11.8283C18.0786 11.0782 18.5 10.0608 18.5 8.9999C18.5 8.9654 18.493 8.9369 18.4925 8.9034C18.4533 9.60453 18.1474 10.2641 17.6374 10.7469C17.1275 11.2297 16.4522 11.4991 15.75 11.4999Z" fill="#7D2A30"/>
<path d="M8.49 26.8499C8.52779 27.1145 8.45895 27.3832 8.2986 27.597C8.13826 27.8108 7.89955 27.9521 7.635 27.9899C7.37045 28.0277 7.10172 27.9589 6.88792 27.7985C6.67413 27.6382 6.53279 27.3995 6.495 27.1349L5.51 20.1499C5.505 20.0999 5.5 20.0499 5.5 20.0049C5.5004 19.7502 5.59732 19.505 5.77124 19.3188C5.94515 19.1326 6.18316 19.0192 6.43732 19.0015C6.69148 18.9837 6.94293 19.0629 7.14104 19.2231C7.33915 19.3834 7.46919 19.6127 7.505 19.8649L8.49 26.8499Z" fill="#8EA241"/>
<path d="M14 20V27C14 27.2652 13.8946 27.5196 13.7071 27.7071C13.5196 27.8946 13.2652 28 13 28C12.7348 28 12.4804 27.8946 12.2929 27.7071C12.1054 27.5196 12 27.2652 12 27V20C12.0008 19.735 12.1064 19.4811 12.2938 19.2938C12.4811 19.1064 12.735 19.0008 13 19C13.2646 19.002 13.5178 19.108 13.7049 19.2951C13.8921 19.4822 13.998 19.7354 14 20Z" fill="#8EA241"/>
<path d="M26.4999 20.0049C26.4999 20.0499 26.4949 20.0999 26.4899 20.1499L25.5049 27.1349C25.4862 27.2659 25.4418 27.392 25.3744 27.5058C25.307 27.6197 25.2178 27.7191 25.112 27.7985C25.0061 27.8779 24.8856 27.9357 24.7575 27.9685C24.6293 28.0014 24.4959 28.0086 24.3649 27.9899C24.2339 27.9712 24.1079 27.9269 23.994 27.8595C23.8801 27.7921 23.7807 27.7029 23.7013 27.597C23.6219 27.4912 23.5641 27.3707 23.5313 27.2425C23.4984 27.1143 23.4912 26.9809 23.5099 26.8499L24.4949 19.8649C24.5307 19.6127 24.6607 19.3834 24.8588 19.2231C25.0569 19.0629 25.3084 18.9837 25.5626 19.0015C25.8167 19.0192 26.0547 19.1326 26.2286 19.3188C26.4026 19.505 26.4995 19.7502 26.4999 20.0049Z" fill="#8EA241"/>
<path d="M20 20V27C20 27.2652 19.8946 27.5196 19.7071 27.7071C19.5196 27.8946 19.2652 28 19 28C18.7348 28 18.4804 27.8946 18.2929 27.7071C18.1054 27.5196 18 27.2652 18 27V20C18.0008 19.735 18.1064 19.4811 18.2938 19.2938C18.4811 19.1064 18.735 19.0008 19 19C19.2646 19.002 19.5178 19.108 19.7049 19.2951C19.892 19.4822 19.998 19.7354 20 20Z" fill="#8EA241"/>
<path d="M6 21.0049C6.00043 20.762 6.08875 20.5274 6.24867 20.3445C6.40859 20.1616 6.62928 20.0428 6.87 20.0099C7.1062 19.9768 7.34641 20.0301 7.5465 20.1599L7.505 19.8659C7.46919 19.6137 7.33915 19.3843 7.14104 19.2241C6.94293 19.0639 6.69148 18.9847 6.43732 19.0024C6.18316 19.0202 5.94515 19.1336 5.77124 19.3198C5.59732 19.506 5.5004 19.7511 5.5 20.0059C5.5 20.0509 5.505 20.1009 5.51 20.1509L6.495 27.1359C6.51508 27.28 6.56655 27.4179 6.64578 27.5399C6.725 27.6619 6.83005 27.765 6.9535 27.8419L6.01 21.1499C6.005 21.0999 6 21.0499 6 21.0049Z" fill="#628C1B"/>
<path d="M13.5 20C13.6762 20.0007 13.8489 20.0489 14 20.1395V20C13.998 19.7354 13.8921 19.4822 13.7049 19.2951C13.5178 19.108 13.2646 19.002 13 19C12.735 19.0008 12.4811 19.1064 12.2938 19.2938C12.1064 19.4811 12.0008 19.735 12 20V27C12.001 27.1746 12.0476 27.3459 12.1354 27.4969C12.2231 27.6478 12.3488 27.7732 12.5 27.8605V21C12.5008 20.735 12.6064 20.4811 12.7938 20.2938C12.9811 20.1064 13.235 20.0008 13.5 20Z" fill="#628C1B"/>
<path d="M24.9951 20.8649C25.0182 20.7023 25.0808 20.5478 25.1773 20.4149C25.2739 20.282 25.4016 20.1748 25.5492 20.1026C25.6968 20.0305 25.8598 19.9956 26.024 20.0009C26.1881 20.0063 26.3485 20.0518 26.4911 20.1334C26.4956 20.0894 26.5001 20.0449 26.5001 20.0049C26.4997 19.7502 26.4028 19.505 26.2288 19.3188C26.0549 19.1326 25.8169 19.0192 25.5628 19.0015C25.3086 18.9837 25.0571 19.0629 24.859 19.2231C24.6609 19.3834 24.5309 19.6127 24.4951 19.8649L23.5101 26.8499C23.4807 27.0501 23.5128 27.2545 23.6021 27.4361C23.6914 27.6177 23.8336 27.7679 24.0101 27.8669C24.0101 27.8614 24.0101 27.8559 24.0101 27.8499L24.9951 20.8649Z" fill="#628C1B"/>
<path d="M19.5 20C19.6762 20.0007 19.8489 20.0489 20 20.1395V20C19.998 19.7354 19.892 19.4822 19.7049 19.2951C19.5178 19.108 19.2646 19.002 19 19C18.735 19.0008 18.4811 19.1064 18.2938 19.2938C18.1064 19.4811 18.0008 19.735 18 20V27C18.001 27.1746 18.0476 27.3459 18.1354 27.4969C18.2231 27.6478 18.3488 27.7732 18.5 27.8605V21C18.5008 20.735 18.6064 20.4811 18.7938 20.2938C18.9811 20.1064 19.235 20.0008 19.5 20Z" fill="#628C1B"/>
<path d="M22 3.5H10V2V0.5H22V2V3.5Z" fill="#88AB00"/>
<path d="M30 16.5L28.23 29.765C28.1668 30.2452 27.931 30.6861 27.5667 31.0053C27.2024 31.3246 26.7344 31.5004 26.25 31.5H5.75C5.26561 31.5004 4.79762 31.3246 4.4333 31.0053C4.06899 30.6861 3.83323 30.2452 3.77 29.765L2 16.5H30ZM26.49 20.15C26.495 20.1 26.5 20.05 26.5 20.005C26.4996 19.7502 26.4027 19.505 26.2288 19.3189C26.0548 19.1327 25.8168 19.0193 25.5627 19.0015C25.3085 18.9838 25.0571 19.063 24.859 19.2232C24.6609 19.3834 24.5308 19.6127 24.495 19.865L23.51 26.85C23.4913 26.981 23.4986 27.1144 23.5314 27.2426C23.5642 27.3708 23.622 27.4912 23.7014 27.5971C23.7808 27.7029 23.8803 27.7921 23.9941 27.8595C24.108 27.927 24.234 27.9713 24.365 27.99C24.496 28.0087 24.6294 28.0014 24.7576 27.9686C24.8858 27.9358 25.0062 27.878 25.1121 27.7986C25.3259 27.6383 25.4672 27.3996 25.505 27.135L26.49 20.15ZM20 27V20C19.998 19.7354 19.892 19.4822 19.7049 19.2951C19.5178 19.108 19.2646 19.002 19 19C18.735 19.0008 18.4811 19.1064 18.2938 19.2938C18.1064 19.4811 18.0008 19.735 18 20V27C18 27.2652 18.1054 27.5196 18.2929 27.7071C18.4804 27.8946 18.7348 28 19 28C19.2652 28 19.5196 27.8946 19.7071 27.7071C19.8946 27.5196 20 27.2652 20 27ZM14 27V20C13.998 19.7354 13.8921 19.4822 13.7049 19.2951C13.5178 19.108 13.2646 19.002 13 19C12.735 19.0008 12.4811 19.1064 12.2938 19.2938C12.1064 19.4811 12.0008 19.735 12 20V27C12 27.2652 12.1054 27.5196 12.2929 27.7071C12.4804 27.8946 12.7348 28 13 28C13.2652 28 13.5196 27.8946 13.7071 27.7071C13.8946 27.5196 14 27.2652 14 27ZM7.63 27.99C7.76169 27.9725 7.88859 27.9289 8.00333 27.862C8.11806 27.795 8.21835 27.7059 8.29836 27.5998C8.37837 27.4938 8.43651 27.3729 8.46941 27.2441C8.50231 27.1154 8.50931 26.9814 8.49 26.85L7.505 19.865C7.46919 19.6127 7.33915 19.3834 7.14104 19.2232C6.94293 19.063 6.69148 18.9838 6.43732 19.0015C6.18316 19.0193 5.94515 19.1327 5.77124 19.3189C5.59732 19.505 5.5004 19.7502 5.5 20.005C5.5 20.05 5.505 20.1 5.51 20.15L6.495 27.135C6.51278 27.2659 6.55633 27.392 6.62314 27.506C6.68994 27.62 6.77868 27.7197 6.88422 27.7992C6.98976 27.8787 7.11 27.9365 7.23801 27.9692C7.36602 28.002 7.49925 28.009 7.63 27.99Z" fill="#FAD27A"/>
<path d="M30 16.5H1C0.867392 16.5 0.740215 16.4473 0.646447 16.3536C0.552678 16.2598 0.5 16.1326 0.5 16V13C0.5 12.8674 0.552678 12.7402 0.646447 12.6464C0.740215 12.5527 0.867392 12.5 1 12.5H31C31.1326 12.5 31.2598 12.5527 31.3536 12.6464C31.4473 12.7402 31.5 12.8674 31.5 13V16C31.5 16.1326 31.4473 16.2598 31.3536 16.3536C31.2598 16.4473 31.1326 16.5 31 16.5H30Z" fill="#88AB00"/>
<path d="M29 12.5H28V5C27.9992 4.3372 27.7356 3.70178 27.2669 3.23311C26.7982 2.76444 26.1628 2.50079 25.5 2.5H22V1.5H25.5C26.4279 1.50106 27.3176 1.87015 27.9737 2.5263C28.6299 3.18244 28.9989 4.07207 29 5V12.5Z" fill="#CEDADA"/>
<path d="M4 12.5H3V5C3.00106 4.07207 3.37015 3.18244 4.0263 2.5263C4.68244 1.87015 5.57207 1.50106 6.5 1.5H10V2.5H6.5C5.8372 2.50079 5.20178 2.76444 4.73311 3.23311C4.26444 3.70178 4.00079 4.3372 4 5V12.5Z" fill="#CEDADA"/>
<path d="M10 0.5V3.5H22V0.5H20.5C20.5 0.897825 20.342 1.27936 20.0607 1.56066C19.7794 1.84196 19.3978 2 19 2H13C12.6022 2 12.2206 1.84196 11.9393 1.56066C11.658 1.27936 11.5 0.897825 11.5 0.5H10Z" fill="#628C1B"/>
<path d="M31 12.5H27.25C27.5815 12.5 27.8995 12.6317 28.1339 12.8661C28.3683 13.1005 28.5 13.4185 28.5 13.75C28.5 14.0815 28.3683 14.3995 28.1339 14.6339C27.8995 14.8683 27.5815 15 27.25 15H4.75C4.41848 15 4.10054 14.8683 3.86612 14.6339C3.6317 14.3995 3.5 14.0815 3.5 13.75C3.5 13.4185 3.6317 13.1005 3.86612 12.8661C4.10054 12.6317 4.41848 12.5 4.75 12.5H1C0.867392 12.5 0.740215 12.5527 0.646447 12.6464C0.552678 12.7402 0.5 12.8674 0.5 13V16C0.5 16.1326 0.552678 16.2598 0.646447 16.3536C0.740215 16.4473 0.867392 16.5 1 16.5H31C31.1326 16.5 31.2598 16.4473 31.3536 16.3536C31.4473 16.2598 31.5 16.1326 31.5 16V13C31.5 12.8674 31.4473 12.7402 31.3536 12.6464C31.2598 12.5527 31.1326 12.5 31 12.5Z" fill="#628C1B"/>
<path d="M26.806 30H11.55C10.7083 29.9999 9.87686 29.8146 9.11467 29.4574C8.35249 29.1002 7.67818 28.5798 7.1395 27.933C6.97003 27.8702 6.82076 27.7627 6.70753 27.6218C6.59431 27.4809 6.52138 27.312 6.4965 27.133L6.469 26.9365C5.83971 25.75 5.64649 24.3803 5.923 23.066L5.51 20.15C5.505 20.1 5.5 20.05 5.5 20.005C5.5004 19.7502 5.59732 19.505 5.77124 19.3189C5.94515 19.1327 6.18316 19.0193 6.43732 19.0015C6.69148 18.9838 6.94293 19.063 7.14104 19.2232C7.33915 19.3834 7.46919 19.6127 7.505 19.865L7.543 20.1325C8.61294 19.084 10.0519 18.4977 11.55 18.5H29.733L30 16.5H2L3.77 29.765C3.83323 30.2452 4.06899 30.6861 4.4333 31.0053C4.79762 31.3246 5.26561 31.5004 5.75 31.5H26.25C26.7344 31.5004 27.2024 31.3246 27.5667 31.0053C27.931 30.6861 28.1668 30.2452 28.23 29.765L28.2875 29.336C28.1009 29.5444 27.8726 29.7112 27.6174 29.8256C27.3622 29.94 27.0857 29.9994 26.806 30Z" fill="#F5B662"/>
<path d="M24.25 12.5H7.75C7.33579 12.5 7 12.8358 7 13.25C7 13.6642 7.33579 14 7.75 14H24.25C24.6642 14 25 13.6642 25 13.25C25 12.8358 24.6642 12.5 24.25 12.5Z" fill="#ACCC5F"/>
<path d="M28 11H29V12.5H28V11Z" fill="#A3B7B6"/>
<path d="M3 11H4V12.5H3V11Z" fill="#A3B7B6"/>
<path d="M22 1.5H24V2.5H22V1.5Z" fill="#A3B7B6"/>
<path d="M8 1.5H10V2.5H8V1.5Z" fill="#A3B7B6"/>
<path d="M18.5 1H13.5C13.2239 1 13 1.22386 13 1.5C13 1.77614 13.2239 2 13.5 2H18.5C18.7761 2 19 1.77614 19 1.5C19 1.22386 18.7761 1 18.5 1Z" fill="#ACCC5F"/>
<path d="M17 8.27V7C17.0008 6.73503 17.1064 6.48113 17.2938 6.29377C17.4811 6.1064 17.735 6.00079 18 6C18.2646 6.00196 18.5178 6.10795 18.7049 6.29506C18.892 6.48217 18.998 6.73539 19 7V8.27C18.6964 8.09318 18.3513 8.00002 18 8.00002C17.6487 8.00002 17.3036 8.09318 17 8.27Z" fill="#88AB00"/>
<path d="M16 11.9999C15.9985 12.1687 16.0204 12.337 16.065 12.4999H14.565C14.5204 12.337 14.4985 12.1687 14.5 11.9999L14 9.99986C13.9993 9.8396 14.0195 9.67992 14.06 9.52486C14.1655 9.08994 14.4142 8.70312 14.766 8.42654C15.1179 8.14997 15.5525 7.99969 16 7.99986C16.1676 7.98539 16.3364 8.00592 16.4956 8.06014C16.6549 8.11437 16.8011 8.20111 16.925 8.31486C16.6415 8.4952 16.4081 8.74417 16.2464 9.03871C16.0847 9.33326 16 9.66385 16 9.99986V11.9999Z" fill="#FF8B26"/>
<path d="M19.9349 12.4999C19.9796 12.337 20.0015 12.1687 20 11.9999V9.99986C19.999 9.46954 19.7888 8.96103 19.415 8.58486C19.3119 8.4826 19.1979 8.39205 19.075 8.31486C19.1989 8.20111 19.3451 8.11437 19.5043 8.06014C19.6636 8.00592 19.8324 7.98539 20 7.99986C20.5304 7.99986 21.0391 8.21058 21.4142 8.58565C21.7892 8.96072 22 9.46943 22 9.99986L21.5 11.9999C21.5015 12.1687 21.4796 12.337 21.4349 12.4999H19.9349Z" fill="#FF8B26"/>
<path d="M19.0751 8.31498C19.198 8.39216 19.312 8.48272 19.4151 8.58498C19.7889 8.96114 19.9991 9.46966 20.0001 9.99998V12C20.0016 12.1688 19.9797 12.3371 19.9351 12.5H16.0651C16.0204 12.3371 15.9985 12.1688 16.0001 12V9.99998C16 9.66397 16.0847 9.33338 16.2464 9.03883C16.4081 8.74428 16.6416 8.49531 16.9251 8.31498L17.0001 8.26998C17.3037 8.09316 17.6487 8 18.0001 8C18.3514 8 18.6965 8.09316 19.0001 8.26998L19.0751 8.31498Z" fill="#FAAB1B"/>
<path d="M0.514964 0.514444C0.514964 0.514444 4.10996 0.234444 6.91496 2.11944C7.04996 2.20444 7.17996 2.29944 7.30996 2.39944C7.33496 2.63444 7.29996 3.29494 6.49496 4.37994C6.19601 4.78125 5.86672 5.15902 5.50996 5.50994C5.15904 5.8667 4.78127 6.19599 4.37996 6.49494C3.29496 7.29994 2.63496 7.33494 2.39996 7.30994C0.209964 4.45994 0.514964 0.514444 0.514964 0.514444Z" fill="#CEDADA"/>
<path d="M4.4399 6.57987L6.3599 8.49987L6.3849 8.54487C6.08904 8.69464 5.82635 8.90241 5.61246 9.15581C5.39857 9.40921 5.23786 9.70307 5.1399 10.0199L5.0849 9.99987C4.5299 9.47987 3.9899 8.96987 3.5049 8.49487C3.3299 8.32487 3.1649 8.15987 3.0099 8.00487C2.79056 7.78776 2.58673 7.55552 2.3999 7.30987C2.6349 7.33487 3.2949 7.29987 4.3799 6.49487L4.4399 6.57987Z" fill="#A3B7B6"/>
<path d="M14 9.99988L14.5 11.9999C14.4985 12.1688 14.5203 12.337 14.565 12.4999H12.71C12.901 12.0228 12.9995 11.5138 13 10.9999C13 9.31988 11.965 8.45988 10.5 8.14988V7.99988L11.415 6.62988C12.37 7.67488 13.28 8.69488 14 9.50988L14.06 9.52488C14.0195 9.67994 13.9993 9.83962 14 9.99988Z" fill="#A3B7B6"/>
<path d="M6.49988 6.49988L7.49988 7.99988V8.14988C7.11081 8.226 6.7351 8.3591 6.38488 8.54488L6.35988 8.49988L4.43988 6.57988L4.37988 6.49488C4.78119 6.19593 5.15896 5.86663 5.50988 5.50988C5.86663 5.15896 6.19593 4.78119 6.49488 4.37988L6.57988 4.43988L8.49988 6.35988L8.56488 6.42488L7.97488 6.99988L6.49988 6.49988Z" fill="#516667"/>
<path d="M11.3451 6.5499L10.0001 6.9999L9.00012 5.9999L8.56512 6.4249L8.50012 6.3599L6.58012 4.4399L6.49512 4.3799C7.30012 3.2949 7.33512 2.6344 7.31012 2.3999C7.55587 2.5866 7.78812 2.79044 8.00512 3.0099C8.99512 3.9999 10.1951 5.2899 11.3451 6.5499Z" fill="#B8CFCD"/>
<path d="M24.5 4.5H28.5C28.6326 4.5 28.7598 4.55268 28.8536 4.64645C28.9473 4.74021 29 4.86739 29 5V6H24V5C24 4.86739 24.0527 4.74021 24.1464 4.64645C24.2402 4.55268 24.3674 4.5 24.5 4.5Z" fill="#56D5F8"/>
<path d="M29 6L31 8.5H25.5L24 6H29Z" fill="#99EFFF"/>
<path d="M25.5 8.5H31V12.5H25.5V8.5Z" fill="#69E5FD"/>
<path d="M16 11.9999C15.9985 12.1687 16.0204 12.337 16.065 12.4999H14.565C14.5204 12.337 14.4985 12.1687 14.5 11.9999L14 9.99986C13.9993 9.8396 14.0195 9.67992 14.06 9.52486C14.1655 9.08994 14.4142 8.70312 14.766 8.42654C15.1179 8.14997 15.5525 7.99969 16 7.99986C16.1676 7.98539 16.3364 8.00592 16.4956 8.06014C16.6549 8.11437 16.8011 8.20111 16.925 8.31486C16.6415 8.4952 16.4081 8.74417 16.2464 9.03871C16.0847 9.33326 16 9.66385 16 9.99986V11.9999Z" fill="#FF8B26"/>
<path d="M20 7.99986C20.5304 7.99986 21.0391 8.21058 21.4142 8.58565C21.7892 8.96072 22 9.46943 22 9.99986L21.5 11.9999C21.5015 12.1687 21.4796 12.337 21.4349 12.4999H19.9349C19.9796 12.337 20.0015 12.1687 20 11.9999V9.99986C19.999 9.46954 19.7888 8.96103 19.415 8.58486C19.3119 8.4826 19.1979 8.39205 19.075 8.31486C19.1989 8.20111 19.3451 8.11437 19.5043 8.06014C19.6636 8.00592 19.8324 7.98539 20 7.99986Z" fill="#FF8B26"/>
<path d="M10 7L11.345 6.55C11.3709 6.57428 11.3944 6.60108 11.415 6.63L10.5 8V8.15C10.007 8.04491 9.504 7.99461 9 8C8.496 7.99461 7.99295 8.04491 7.5 8.15V8L6.5 6.5L7.975 7L8.565 6.425L9 6L10 7Z" fill="#88AB00"/>
<path d="M7.4999 8.1499C7.99285 8.04482 8.4959 7.99451 8.9999 7.9999C9.50389 7.99451 10.0069 8.04482 10.4999 8.1499C11.9649 8.4599 12.9999 9.3199 12.9999 10.9999C12.9994 11.5138 12.9009 12.0229 12.7099 12.4999H5.2899C5.09886 12.0229 5.00044 11.5138 4.9999 10.9999C4.99684 10.668 5.04404 10.3376 5.1399 10.0199C5.23785 9.7031 5.39856 9.40924 5.61245 9.15584C5.82634 8.90244 6.08904 8.69467 6.3849 8.5449C6.73511 8.35912 7.11083 8.22602 7.4999 8.1499Z" fill="#CC464F"/>
<path d="M25.5 8.5H22V10V12.5H25.5V8.5Z" fill="#01A3EC"/>
<path d="M24.527 6.878L24 6L22 8.5H22.5L24.527 6.878Z" fill="#0191D8"/>
<path d="M25.5 8.49993L24.527 6.87793L22.5 8.49993H22H25.5Z" fill="#006CBF"/>
<path d="M25.5 8.5V12.5H31V11.5H29.5C28.837 11.5 28.2011 11.2366 27.7322 10.7678C27.2634 10.2989 27 9.66304 27 9V8.5H25.5Z" fill="#30CFFF"/>
<path d="M25.571 6H24L25.5 8.5H27L25.571 6Z" fill="#69E5FD"/>
<path d="M25 4.5H24.5C24.3674 4.5 24.2402 4.55268 24.1464 4.64645C24.0527 4.74021 24 4.86739 24 5V6H29V5.5H26C25.7348 5.5 25.4804 5.39464 25.2929 5.20711C25.1054 5.01957 25 4.76522 25 4.5Z" fill="#01C1FF"/>
<path d="M8.2499 11.4999C7.84639 11.5 7.45526 11.3606 7.14272 11.1054C6.83018 10.8502 6.61543 10.4948 6.53484 10.0994C6.45425 9.70406 6.51276 9.29298 6.70047 8.9358C6.88818 8.57862 7.19356 8.29727 7.5649 8.1394C7.5439 8.1439 7.5209 8.1449 7.4999 8.1494C7.11083 8.22552 6.73511 8.35862 6.3849 8.5444C6.08902 8.69427 5.82632 8.90213 5.61243 9.15562C5.39855 9.4091 5.23784 9.70303 5.1399 10.0199C5.04404 10.3376 4.99684 10.668 4.9999 10.9999C5.00044 11.5138 5.09886 12.0229 5.2899 12.4999H12.7099C12.8367 12.1786 12.9224 11.8426 12.9649 11.4999H8.2499Z" fill="#99343B"/>
<path d="M11.345 6.55L10 7V7.5H8V6.9755L7.975 7L6.5 6.5L7.5 8V8.15C7.99295 8.04491 8.496 7.99461 9 8C9.504 7.99461 10.007 8.04491 10.5 8.15V8L11.415 6.63C11.3944 6.60108 11.3709 6.57428 11.345 6.55Z" fill="#628C1B"/>
<path d="M12 11.5C11.8674 11.5 11.7402 11.4473 11.6464 11.3536C11.5527 11.2598 11.5 11.1326 11.5 11C11.5 10.187 11.042 9.5 10.5 9.5C10.3674 9.5 10.2402 9.44732 10.1464 9.35355C10.0527 9.25979 10 9.13261 10 9C10 8.86739 10.0527 8.74021 10.1464 8.64645C10.2402 8.55268 10.3674 8.5 10.5 8.5C11.6215 8.5 12.5 9.6 12.5 11C12.5 11.1326 12.4473 11.2598 12.3536 11.3536C12.2598 11.4473 12.1326 11.5 12 11.5Z" fill="#FF5863"/>
<path d="M21.5 11.9999L21.625 11.4999H21.5C21.3673 11.4999 21.2402 11.4472 21.1464 11.3534C21.0526 11.2596 21 11.1325 21 10.9999V9.49986C20.9959 9.25175 20.9078 9.01235 20.75 8.82086C20.6733 8.72541 20.6335 8.60559 20.6378 8.48324C20.6421 8.3609 20.6903 8.24418 20.7735 8.15436C20.5284 8.05217 20.2655 7.99965 20 7.99986C19.8324 7.98539 19.6636 8.00592 19.5043 8.06014C19.3451 8.11437 19.1989 8.20111 19.075 8.31486C19.1979 8.39205 19.3119 8.4826 19.415 8.58486C19.5119 8.68454 19.5985 8.79376 19.6735 8.91086C19.8856 9.2345 19.9991 9.61287 20 9.99986V11.9999C20.0016 12.1687 19.9797 12.337 19.9349 12.4999H21.4349C21.4796 12.337 21.5015 12.1687 21.5 11.9999Z" fill="#F37924"/>
<path d="M16 11.9999V9.99986C15.9999 9.66385 16.0847 9.33326 16.2464 9.03871C16.4081 8.74417 16.6415 8.4952 16.925 8.31486C16.8011 8.20111 16.6548 8.11437 16.4956 8.06014C16.3364 8.00592 16.1676 7.98539 16 7.99986C15.7363 8.00146 15.4755 8.05568 15.233 8.15936C15.3141 8.24959 15.3605 8.3657 15.3638 8.48696C15.3672 8.60823 15.3274 8.72675 15.2515 8.82136C15.0932 9.01251 15.0046 9.25174 15 9.49986V10.9999C15 11.1325 14.9473 11.2596 14.8536 11.3534C14.7598 11.4472 14.6326 11.4999 14.5 11.4999H14.375L14.5 11.9999C14.4985 12.1687 14.5203 12.337 14.565 12.4999H16.065C16.0203 12.337 15.9984 12.1687 16 11.9999Z" fill="#F37924"/>
<path d="M17.0001 10.5V9C17.0001 8.73478 17.1054 8.48043 17.293 8.29289C17.4805 8.10536 17.7349 8 18.0001 8C17.6488 8.00036 17.3038 8.09351 17.0001 8.27L16.9251 8.315C16.6418 8.49557 16.4085 8.7446 16.2469 9.03909C16.0852 9.33358 16.0003 9.66405 16.0001 10V12C15.9985 12.1689 16.0204 12.3371 16.0651 12.5H19.9351C19.9797 12.3371 20.0016 12.1689 20.0001 12V11.5H18.0001C17.7349 11.5 17.4805 11.3946 17.293 11.2071C17.1054 11.0196 17.0001 10.7652 17.0001 10.5Z" fill="#FF9B00"/>
<path d="M18.25 7.5C18.0639 7.49717 17.8855 7.42525 17.7495 7.29822C17.6135 7.17118 17.5295 6.99811 17.514 6.81264C17.4985 6.62717 17.5525 6.44255 17.6655 6.29468C17.7785 6.1468 17.9425 6.04622 18.1255 6.0125C18.084 6.00554 18.0421 6.00136 18 6C17.735 6.00079 17.4811 6.1064 17.2938 6.29377C17.1064 6.48113 17.0008 6.73503 17 7V8.27C17.3036 8.09318 17.6487 8.00002 18 8.00002C18.3513 8.00002 18.6964 8.09318 19 8.27V7.5H18.25Z" fill="#628C1B"/>
<path d="M6.91494 2.11955C6.85694 2.08105 6.79694 2.04805 6.73844 2.01105C6.04949 2.92484 5.25141 3.75097 4.36194 4.47105C4.07993 4.686 3.73003 4.79239 3.37609 4.77082C3.02215 4.74925 2.68777 4.60115 2.43394 4.35355C1.24344 3.17605 0.603942 0.891049 0.512942 0.550049C0.491442 0.884049 0.310442 4.59105 2.39994 7.31005C2.63494 7.33505 3.29494 7.30005 4.37994 6.49505C4.78125 6.1961 5.15902 5.8668 5.50994 5.51005C5.86669 5.15913 6.19599 4.78135 6.49494 4.38005C7.29994 3.29455 7.33494 2.63455 7.30994 2.40005C7.17994 2.30005 7.04994 2.20455 6.91494 2.11955Z" fill="#B8CFCD"/>
<path d="M4.25 3.5C4.66421 3.5 5 3.16421 5 2.75C5 2.33579 4.66421 2 4.25 2C3.83579 2 3.5 2.33579 3.5 2.75C3.5 3.16421 3.83579 3.5 4.25 3.5Z" fill="#2C3D45"/>
<path d="M1.99989 1.99988L1.40289 0.506379C0.852893 0.488879 0.514893 0.514379 0.514893 0.514379V0.536879C0.594393 0.758379 1.08889 1.99988 1.99989 1.99988Z" fill="#839D9C"/>
<path d="M4.25 3C4.38807 3 4.5 2.88807 4.5 2.75C4.5 2.61193 4.38807 2.5 4.25 2.5C4.11193 2.5 4 2.61193 4 2.75C4 2.88807 4.11193 3 4.25 3Z" fill="white"/>
<path d="M4.37988 6.49486L4.43988 6.57986L6.35988 8.49986L6.38488 8.54486C6.7351 8.35907 7.11081 8.22597 7.49988 8.14986V7.99986L5.25638 5.75586C4.97979 6.02009 4.68706 6.2669 4.37988 6.49486Z" fill="#3E5857"/>
<path d="M8.56512 6.42488L8.50012 6.35988L6.58012 4.43988L6.49512 4.37988C6.35512 4.57088 6.18762 4.77638 5.99512 4.99438L7.98812 6.98738L8.56512 6.42488Z" fill="#3E5857"/>
<path d="M7.9751 6.99988L7.9876 6.98738L5.9946 4.99438C5.8491 5.15838 5.6906 5.32938 5.5101 5.50988C5.4231 5.59688 5.3391 5.67688 5.2561 5.75538L7.5001 7.99988L6.5001 6.49988L7.9751 6.99988Z" fill="#516667"/>
<path d="M5.68697 5.68634C6.05201 5.32632 6.3893 4.93922 6.69597 4.52834C7.1635 3.98365 7.46386 3.31557 7.56097 2.60434C7.47747 2.53484 7.39447 2.46484 7.31097 2.39934C7.22747 2.33384 7.14697 2.28234 7.06497 2.22534C7.04795 2.26948 7.0443 2.31765 7.05447 2.36384C7.05839 2.38433 7.06106 2.40503 7.06247 2.42584C7.07897 2.58434 7.07347 3.18184 6.29447 4.23234C6.00267 4.6227 5.68175 4.99041 5.33447 5.33234C4.99261 5.68016 4.62489 6.00158 4.23447 6.29384C3.18447 7.07134 2.58847 7.07734 2.42347 7.05984C2.4067 7.05882 2.39 7.05682 2.37347 7.05384C2.32623 7.04128 2.27625 7.04372 2.23047 7.06084C2.28897 7.14334 2.34197 7.22834 2.40447 7.31084C2.46697 7.39334 2.53947 7.47834 2.60947 7.56084C3.32006 7.46407 3.98762 7.16424 4.53197 6.69734C4.942 6.39006 5.32811 6.05209 5.68697 5.68634Z" fill="#839D9C"/>
<path d="M17.9175 9.56845C18.1175 9.75195 18.2825 9.96245 18.485 10.1424C18.6847 10.3368 18.9414 10.4621 19.2175 10.4999C19.2542 10.5054 19.2916 10.5016 19.3265 10.4889C19.3699 10.4654 19.4028 10.4263 19.4185 10.3794C19.4792 10.2313 19.5062 10.0715 19.4976 9.91157C19.4889 9.75168 19.4448 9.5957 19.3685 9.45495C19.2311 9.19343 19.0317 8.9696 18.7877 8.80309C18.5437 8.63659 18.2626 8.5325 17.969 8.49995C17.8636 8.49409 17.7595 8.52616 17.6757 8.59036C17.5919 8.65456 17.5338 8.74664 17.512 8.84995C17.44 9.16595 17.7 9.36695 17.9175 9.56845Z" fill="#FBCB00"/>
</g>
<defs>
<clipPath id="clip0_56_3865">
<rect width="32" height="32" fill="white"/>
</clipPath>
</defs>
</svg>
