<svg width="32" height="33" viewBox="0 0 32 33" fill="none" xmlns="http://www.w3.org/2000/svg">
<g clip-path="url(#clip0_66_4862)">
<path d="M28.0723 32.0666H3.92827C2.89893 32.0666 1.9096 31.8169 1.2176 31.3808C0.522932 30.9447 0.181599 30.3582 0.276266 29.7709L2.20427 17.9716C2.3816 16.8856 3.95093 16.0669 5.85627 16.0669H26.1456C28.0509 16.0669 29.6189 16.8856 29.7963 17.9724L31.7243 29.7709C31.8189 30.3582 31.4763 30.9455 30.7829 31.3808C30.0896 31.8169 29.1016 32.0666 28.0723 32.0666Z" fill="#51994E"/>
<path d="M30.3474 21.2783L20.2272 21.2784H1.6674L1.21387 23.9464H17.7746L10.6004 32.0699H13.7242L20.901 23.9438L30.7823 23.9437L30.3474 21.2783Z" fill="#FFC107"/>
<path d="M22.2131 2.64004C23.8263 4.25306 24.749 6.43024 24.786 8.71121C24.823 10.9922 23.9714 13.1981 22.4113 14.8626L22.2131 15.0676L18.0706 19.2092C17.545 19.7345 16.8393 20.0403 16.0966 20.0648C15.3539 20.0893 14.6297 19.8305 14.0706 19.341L13.93 19.2092L9.78653 15.0667C8.13866 13.4188 7.21289 11.1838 7.21289 8.85335C7.21289 6.52291 8.13866 4.28791 9.78653 2.64004C11.4344 0.992171 13.6694 0.0664063 15.9998 0.0664062C18.3303 0.0664063 20.5653 0.992171 22.2131 2.64004ZM15.9998 5.92439C15.6152 5.92439 15.2343 6.00015 14.879 6.14734C14.5236 6.29454 14.2007 6.51028 13.9287 6.78226C13.6568 7.05424 13.441 7.37713 13.2938 7.73249C13.1466 8.08784 13.0709 8.46871 13.0709 8.85335C13.0709 9.23799 13.1466 9.61886 13.2938 9.97422C13.441 10.3296 13.6568 10.6525 13.9287 10.9244C14.2007 11.1964 14.5236 11.4122 14.879 11.5594C15.2343 11.7066 15.6152 11.7823 15.9998 11.7823C16.7766 11.7823 17.5216 11.4737 18.0709 10.9244C18.6202 10.3752 18.9288 9.63016 18.9288 8.85335C18.9288 8.07654 18.6202 7.33155 18.0709 6.78226C17.5216 6.23297 16.7766 5.92439 15.9998 5.92439Z" fill="#ED3E3E"/>
<circle cx="16" cy="8.56494" r="3.5" fill="white"/>
</g>
<defs>
<clipPath id="clip0_66_4862">
<rect width="32" height="32" fill="white" transform="translate(0 0.0664062)"/>
</clipPath>
</defs>
</svg>
