<svg width="16" height="18" viewBox="0 0 16 18" fill="none" xmlns="http://www.w3.org/2000/svg">
<path d="M13.3034 2.86346C14.6803 4.24024 15.4678 6.09856 15.4994 8.04547C15.531 9.99239 14.8041 11.8753 13.4725 13.296L13.3034 13.471L9.76755 17.006C9.3189 17.4543 8.71661 17.7154 8.08267 17.7363C7.44874 17.7572 6.83057 17.5363 6.35338 17.1185L6.23338 17.006L2.69671 13.4701C1.29018 12.0636 0.5 10.1559 0.5 8.16679C0.5 6.17766 1.29018 4.26999 2.69671 2.86346C4.10324 1.45693 6.01091 0.666748 8.00005 0.666748C9.98918 0.666748 11.8968 1.45693 13.3034 2.86346ZM8.00005 5.66679C7.67174 5.66679 7.34665 5.73146 7.04334 5.85709C6.74002 5.98273 6.46443 6.16688 6.23228 6.39903C6.00013 6.63117 5.81598 6.90677 5.69035 7.21009C5.56471 7.5134 5.50005 7.83849 5.50005 8.16679C5.50005 8.4951 5.56471 8.82019 5.69035 9.1235C5.81598 9.42682 6.00013 9.70241 6.23228 9.93456C6.46443 10.1667 6.74002 10.3509 7.04334 10.4765C7.34665 10.6021 7.67174 10.6668 8.00005 10.6668C8.66309 10.6668 9.29897 10.4034 9.76781 9.93456C10.2367 9.46572 10.5 8.82984 10.5 8.16679C10.5 7.50375 10.2367 6.86787 9.76781 6.39903C9.29897 5.93019 8.66309 5.66679 8.00005 5.66679Z" fill="currentColor"/>
</svg>
