<svg width="242" height="206" viewBox="0 0 242 206" fill="none" xmlns="http://www.w3.org/2000/svg">
<ellipse cx="121.197" cy="136.652" rx="120" ry="68.8696" fill="#CDE7CB" fill-opacity="0.3"/>
<g clip-path="url(#clip0_55_33914)">
<path d="M183.805 157.261H84.6744C81.7944 157.261 79.457 155.371 79.457 153.042C79.457 150.713 81.7944 148.822 84.6744 148.822H183.805C189.565 148.822 194.24 145.042 194.24 140.383C194.24 135.725 189.565 131.945 183.805 131.945H131.631C120.121 131.945 110.761 124.375 110.761 115.067C110.761 105.759 120.121 98.1892 131.631 98.1892H147.283C150.163 98.1892 152.501 100.08 152.501 102.409C152.501 104.738 150.163 106.628 147.283 106.628H131.631C125.881 106.628 121.196 110.409 121.196 115.067C121.196 119.725 125.881 123.506 131.631 123.506H183.805C195.314 123.506 204.674 131.075 204.674 140.383C204.674 149.691 195.314 157.261 183.805 157.261Z" fill="#090B09"/>
<path d="M199.458 14.3044H157.719C154.839 14.3044 152.501 16.6418 152.501 19.5218V50.8262C152.501 53.7062 154.839 56.0436 157.719 56.0436H199.458C202.338 56.0436 204.675 53.7062 204.675 50.8262V19.5218C204.675 16.6418 202.338 14.3044 199.458 14.3044Z" fill="#144A19"/>
<path d="M157.719 76.9131C154.839 76.9131 152.501 74.5757 152.501 71.6957V19.5218C152.501 16.6418 154.839 14.3044 157.719 14.3044C160.599 14.3044 162.936 16.6418 162.936 19.5218V71.6957C162.936 74.5757 160.599 76.9131 157.719 76.9131Z" fill="#D6D8D6"/>
<path d="M75.2837 137.548C84.3884 137.548 92.2141 143.659 92.2144 151.695C92.2144 159.731 84.3886 165.843 75.2837 165.844C66.1787 165.844 58.353 159.731 58.353 151.695C58.3533 143.659 66.1789 137.548 75.2837 137.548Z" fill="#144A19" stroke="#F0F8EF" stroke-width="2.55652"/>
<path d="M157.719 86.0696C166.824 86.0697 174.649 92.181 174.649 100.217C174.649 108.253 166.824 114.365 157.719 114.365C148.614 114.365 140.788 108.253 140.788 100.217C140.788 92.181 148.614 86.0696 157.719 86.0696Z" fill="#144A19" stroke="#F0F8EF" stroke-width="2.55652"/>
<path d="M101.846 53.8932C108.742 60.7889 112.687 70.0964 112.845 79.8477C113.003 89.5989 109.362 99.0295 102.693 106.145L101.846 107.022L84.1363 124.727C81.8893 126.973 78.8727 128.28 75.6976 128.385C72.5225 128.489 69.4263 127.383 67.0363 125.29L66.4352 124.727L48.7216 107.017C41.6769 99.9727 37.7192 90.4181 37.7192 80.4553C37.7192 70.4926 41.6769 60.938 48.7216 53.8932C55.7663 46.8485 65.321 42.8909 75.2837 42.8909C85.2464 42.8909 94.8011 46.8485 101.846 53.8932ZM75.2837 67.9339C73.6394 67.9339 72.0111 68.2578 70.492 68.8871C68.9728 69.5163 67.5925 70.4386 66.4297 71.6014C65.267 72.7641 64.3447 74.1444 63.7154 75.6636C63.0862 77.1828 62.7623 78.811 62.7623 80.4553C62.7623 82.0997 63.0862 83.7279 63.7154 85.2471C64.3447 86.7662 65.267 88.1466 66.4297 89.3093C67.5925 90.472 68.9728 91.3944 70.492 92.0236C72.0111 92.6529 73.6394 92.9768 75.2837 92.9768C78.6046 92.9768 81.7895 91.6575 84.1377 89.3093C86.4859 86.9611 87.8051 83.7762 87.8051 80.4553C87.8051 77.1345 86.4859 73.9496 84.1377 71.6014C81.7895 69.2531 78.6046 67.9339 75.2837 67.9339Z" fill="#144A19"/>
<circle cx="75.3222" cy="80.6354" r="12.7826" fill="white"/>
</g>
<path d="M17.0903 53.6443C18.4133 53.6443 19.4871 54.718 19.4871 56.041C19.4871 57.364 18.4133 58.4378 17.0903 58.4378C15.7673 58.4378 14.6936 57.364 14.6936 56.041C14.6936 54.718 15.7673 53.6443 17.0903 53.6443Z" fill="#51994E"/>
<path d="M234.157 79.6846C235.48 79.6846 236.554 80.7583 236.554 82.0813C236.554 83.4043 235.48 84.478 234.157 84.478C232.834 84.478 231.76 83.4043 231.76 82.0813C231.76 80.7583 232.834 79.6846 234.157 79.6846Z" fill="#51994E"/>
<path d="M31.0307 33.3013C34.3406 33.3013 37.0225 35.9832 37.0225 39.2931C37.0225 42.603 34.3406 45.285 31.0307 45.285C27.7205 45.285 25.0388 42.603 25.0388 39.2931C25.0388 35.9832 27.7205 33.3013 31.0307 33.3013Z" fill="#144A19"/>
<path d="M225.768 62.0579C229.078 62.0579 231.76 64.7398 231.76 68.0497C231.76 71.3596 229.078 74.0416 225.768 74.0416C222.458 74.0416 219.777 71.3596 219.777 68.0497C219.777 64.7398 222.458 62.0579 225.768 62.0579Z" fill="#144A19"/>
<defs>
<clipPath id="clip0_55_33914">
<rect width="166.957" height="166.957" fill="white" transform="translate(37.718 0.739258)"/>
</clipPath>
</defs>
</svg>
