<svg width="28" height="28" viewBox="0 0 28 28" fill="none" xmlns="http://www.w3.org/2000/svg">
<path d="M3.51416 15.1562L5.8334 15.1667" stroke="#254225" stroke-width="1.75" stroke-linecap="round" stroke-linejoin="round"/>
<path d="M5.83337 11.6666H8.16671" stroke="#254225" stroke-width="1.75" stroke-linecap="round" stroke-linejoin="round"/>
<path d="M15.3781 19.2501H8.16663" stroke="#254225" stroke-width="1.75" stroke-linecap="round" stroke-linejoin="round"/>
<path d="M19.294 13.2846H15.2601C14.6346 13.2846 14.1008 12.8324 13.998 12.2155L13.3232 8.16675" stroke="#254225" stroke-width="1.75" stroke-linecap="round" stroke-linejoin="round"/>
<path d="M18.8685 19.2501H19.7211C20.4274 19.2501 21 18.6775 21 17.9712V15.517C21 15.1779 20.8652 14.8526 20.6254 14.6128L19.2948 13.2822L17.3262 9.34498C16.9652 8.62289 16.2271 8.16676 15.4198 8.16675H8.16663" stroke="#254225" stroke-width="1.75" stroke-linecap="round" stroke-linejoin="round"/>
<path d="M3.5 8.16667C3.5 5.58934 5.58934 3.5 8.16667 3.5H19.8333C22.4107 3.5 24.5 5.58934 24.5 8.16667V19.8333C24.5 22.4107 22.4107 24.5 19.8333 24.5H8.16667C5.58934 24.5 3.5 22.4107 3.5 19.8333" stroke="#254225" stroke-width="1.75" stroke-linecap="round" stroke-linejoin="round"/>
<path d="M17.1228 17.5105C18.0864 17.5104 18.8676 18.2915 18.8676 19.2551C18.8677 20.2187 18.0866 20.9999 17.123 20.9999C16.1594 21 15.3782 20.2189 15.3782 19.2553V19.2551C15.3782 18.2916 16.1593 17.5105 17.1228 17.5105V17.5105" stroke="#254225" stroke-width="1.75" stroke-linecap="round" stroke-linejoin="round"/>
</svg>
