<svg width="28" height="28" viewBox="0 0 28 28" fill="none" xmlns="http://www.w3.org/2000/svg">
<path fill-rule="evenodd" clip-rule="evenodd" d="M17.5001 21.5833H8.16675C6.23358 21.5833 4.66675 20.0164 4.66675 18.0833V12.2499C4.66675 11.6059 5.18941 11.0833 5.83341 11.0833H19.8334C20.4774 11.0833 21.0001 11.6059 21.0001 12.2499V18.0833C21.0001 20.0164 19.4332 21.5833 17.5001 21.5833Z" stroke="#144A19" stroke-width="1.75" stroke-linecap="round" stroke-linejoin="round"/>
<path d="M18.6666 4.08325L12.8333 11.0833" stroke="#144A19" stroke-width="1.75" stroke-linecap="round" stroke-linejoin="round"/>
<path d="M23.3333 6.41675L17.5 11.0834" stroke="#144A19" stroke-width="1.75" stroke-linecap="round" stroke-linejoin="round"/>
<path d="M18.6667 21.3838V23.0416C18.6667 23.8466 18.0133 24.5 17.2083 24.5H8.45833C7.65333 24.5 7 23.8466 7 23.0416V21.3838" stroke="#144A19" stroke-width="1.75" stroke-linecap="round" stroke-linejoin="round"/>
<path d="M12.8334 5.83333C12.0552 5.18933 12.0552 4.144 12.8334 3.5" stroke="#144A19" stroke-width="1.75" stroke-linecap="round" stroke-linejoin="round"/>
<path d="M8.16676 5.83325C8.94493 6.47725 8.94493 7.52259 8.16676 8.16659" stroke="#144A19" stroke-width="1.75" stroke-linecap="round" stroke-linejoin="round"/>
</svg>
