<svg width="41" height="40" viewBox="0 0 41 40" fill="none" xmlns="http://www.w3.org/2000/svg">
<g clip-path="url(#clip0_56_3861)">
<path d="M38 6.25H14.25C13.9175 6.25 13.6 6.3825 13.365 6.615L11.75 8.2325L10.135 6.615C9.9 6.3825 9.5825 6.25 9.25 6.25H3C1.6225 6.25 0.5 7.3725 0.5 8.75V31.25C0.5 32.63 1.6225 33.75 3 33.75H9.25C9.5825 33.75 9.9 33.6175 10.135 33.385L11.75 31.7675L13.365 33.3825C13.6 33.6175 13.9175 33.75 14.25 33.75H38C39.38 33.75 40.5 32.63 40.5 31.25V8.75C40.5 7.3725 39.38 6.25 38 6.25Z" fill="#4CAF50"/>
<path d="M21.75 18.75C19.6825 18.75 18 17.0675 18 15C18 12.9325 19.6825 11.25 21.75 11.25C23.8175 11.25 25.5 12.9325 25.5 15C25.5 17.0675 23.8175 18.75 21.75 18.75ZM21.75 13.75C21.06 13.75 20.5 14.31 20.5 15C20.5 15.69 21.06 16.25 21.75 16.25C22.44 16.25 23 15.69 23 15C23 14.31 22.44 13.75 21.75 13.75Z" fill="white"/>
<path d="M29.25 28.75C27.1825 28.75 25.5 27.0675 25.5 25C25.5 22.9325 27.1825 21.25 29.25 21.25C31.3175 21.25 33 22.9325 33 25C33 27.0675 31.3175 28.75 29.25 28.75ZM29.25 23.75C28.5625 23.75 28 24.3125 28 25C28 25.6875 28.5625 26.25 29.25 26.25C29.9375 26.25 30.5 25.6875 30.5 25C30.5 24.3125 29.9375 23.75 29.25 23.75Z" fill="white"/>
<path d="M19.2499 28.7501C18.9674 28.7501 18.6849 28.6551 18.4499 28.4601C17.9199 28.0176 17.8474 27.2301 18.2899 26.7001L30.7899 11.7001C31.2349 11.1676 32.0224 11.1026 32.5499 11.5401C33.0799 11.9826 33.1499 12.7701 32.7074 13.3026L20.2074 28.3026C19.9624 28.5951 19.6074 28.7501 19.2499 28.7501Z" fill="white"/>
<path d="M13 11.25H10.5V13.75H13V11.25Z" fill="white"/>
<path d="M13 26.25H10.5V28.75H13V26.25Z" fill="white"/>
<path d="M13 21.25H10.5V23.75H13V21.25Z" fill="white"/>
<path d="M13 16.25H10.5V18.75H13V16.25Z" fill="white"/>
</g>
<defs>
<clipPath id="clip0_56_3861">
<rect width="40" height="40" fill="white" transform="translate(0.5)"/>
</clipPath>
</defs>
</svg>
