<svg width="32" height="32" viewBox="0 0 32 32" fill="none" xmlns="http://www.w3.org/2000/svg">
<g clip-path="url(#clip0_56_3934)">
<path d="M0.998047 11.0984H31.0021V29.3603H0.998047V11.0984Z" fill="#F6A96C"/>
<path d="M0.998047 26.3027H2.88617V13.6823C2.88617 13.5045 3.0303 13.3603 3.20811 13.3603H3.76667V11.1609H0.998047V26.3027Z" fill="#EA9B58"/>
<path d="M2.94863 26.3027H0.321938C0.144125 26.3027 0 26.4469 0 26.6247V29.0384C0 29.2162 0.144125 29.3604 0.321938 29.3604H2.88613L2.94863 29.0778V26.3027Z" fill="#FD5426"/>
<path d="M31.9664 10.6965L29.4342 5.56182C29.38 5.45189 29.268 5.38232 29.1455 5.38232H24.7262V7.53326C24.7262 7.67626 24.6099 7.79264 24.4668 7.79264H7.53317C7.39011 7.79264 7.27373 7.67626 7.27373 7.53326V5.38232H2.85442C2.73186 5.38232 2.61992 5.45189 2.56573 5.56182L0.033607 10.6965C-0.071893 10.9104 0.0837945 11.1608 0.322295 11.1608H31.6777C31.9162 11.1608 32.0719 10.9104 31.9664 10.6965Z" fill="#FD5426"/>
<path d="M31.208 9.15876H3.57379C3.33529 9.15876 3.17961 8.90845 3.28511 8.69451L4.91848 5.38232H2.85442C2.73186 5.38232 2.61992 5.45189 2.56573 5.56182L0.033607 10.6965C-0.071893 10.9104 0.0837945 11.1608 0.322295 11.1608H31.6777C31.9162 11.1608 32.0719 10.9104 31.9664 10.6965L31.208 9.15876Z" fill="#EF4424"/>
<path d="M13.8662 13.271H26.9385V21.6702H13.8662V13.271Z" fill="#C8EFFE"/>
<path d="M14.3391 17.1838H15.5624V21.6077H14.3391V17.1838Z" fill="#99E6FC"/>
<path d="M26.9388 21.6702V19.0583H25.0716C24.9649 19.0583 24.8784 19.1448 24.8784 19.2515V21.6702H26.9388Z" fill="white"/>
<path d="M25.7868 21.6077V19.2515C25.7868 19.1448 25.8733 19.0583 25.9799 19.0583H25.0716C24.9649 19.0583 24.8784 19.1448 24.8784 19.2515V21.6077H25.7868Z" fill="#F3F0FF"/>
<path d="M13.4016 17.0945H14.3391V21.6701H13.4016V17.0945Z" fill="#6D3326"/>
<path d="M26.4739 17.0945H27.4114V21.6701H26.4739V17.0945Z" fill="#6D3326"/>
<path d="M17.0421 21.6702H18.465C19.1878 21.4041 19.7206 20.7449 19.8028 19.9515C19.8147 19.8369 19.7257 19.7366 19.6104 19.7366H15.8966C15.7813 19.7366 15.6923 19.8369 15.7042 19.9515C15.7865 20.7449 16.3193 21.4041 17.0421 21.6702Z" fill="white"/>
<path d="M16.8907 21.6077H18.24C17.594 21.3101 17.1276 20.6892 17.0511 19.9515C17.0393 19.8369 17.1283 19.7366 17.2435 19.7366H15.8966C15.7813 19.7366 15.6923 19.8369 15.7042 19.9515C15.7806 20.6885 16.2456 21.3098 16.8907 21.6077Z" fill="#F3F0FF"/>
<path d="M27.8469 21.6077H12.9579C12.7801 21.6077 12.636 21.7518 12.636 21.9296V22.8954C12.636 23.0732 12.7801 23.2174 12.9579 23.2174H27.847C28.0248 23.2174 28.1689 23.0732 28.1689 22.8954V21.9296C28.1689 21.7518 28.0247 21.6077 27.8469 21.6077Z" fill="#A44F3E"/>
<path d="M15.3402 22.8954V21.9296C15.3402 21.7518 15.4844 21.6077 15.6622 21.6077H12.9579C12.7801 21.6077 12.636 21.7518 12.636 21.9296V22.8954C12.636 23.0732 12.7801 23.2174 12.9579 23.2174H15.6622C15.4844 23.2174 15.3402 23.0732 15.3402 22.8954Z" fill="#883F2E"/>
<path d="M14.5112 26.4646H16.1209V29.3601H14.5112V26.4646Z" fill="#6D3326"/>
<path d="M24.6843 26.4646H26.294V29.3601H24.6843V26.4646Z" fill="#6D3326"/>
<path d="M26.932 26.5272H13.873C13.6952 26.5272 13.551 26.383 13.551 26.2052V25.2394C13.551 25.0616 13.6952 24.9175 13.873 24.9175H26.932C27.1098 24.9175 27.254 25.0616 27.254 25.2394V26.2052C27.2539 26.383 27.1098 26.5272 26.932 26.5272Z" fill="#A44F3E"/>
<path d="M15.5492 26.2052V25.2394C15.5492 25.0616 15.6933 24.9175 15.8712 24.9175H13.873C13.6952 24.9175 13.551 25.0616 13.551 25.2394V26.2052C13.551 26.383 13.6952 26.5272 13.873 26.5272H15.8712C15.6933 26.5272 15.5492 26.383 15.5492 26.2052Z" fill="#883F2E"/>
<path d="M15.8482 17.1837H13.0588V13.5984C13.0588 13.4176 13.2054 13.271 13.3863 13.271H16.7307L16.0473 17.0177C16.0297 17.1139 15.946 17.1837 15.8482 17.1837Z" fill="#FD5426"/>
<path d="M20.4027 17.1837H17.6396C17.5423 17.1837 17.4588 17.1146 17.4407 17.0191L16.7307 13.271H20.4026V17.1837H20.4027Z" fill="#FD5426"/>
<path d="M23.8721 17.1837H20.4026V13.271H24.0745V16.9814C24.0745 17.0931 23.9838 17.1837 23.8721 17.1837Z" fill="#EF4424"/>
<path d="M27.7463 17.1837H25.6498C25.5648 17.1837 25.489 17.1307 25.4598 17.051L24.0745 13.271H27.4189C27.5997 13.271 27.7463 13.4176 27.7463 13.5984L27.7463 17.1837Z" fill="#FD5426"/>
<path d="M10.9136 29.3602H2.88623V13.682C2.88623 13.5042 3.03036 13.3601 3.20817 13.3601H10.5917C10.7695 13.3601 10.9136 13.5042 10.9136 13.682V29.3602Z" fill="#883F2E"/>
<path d="M2.88623 20.8994H10.9136V26.9749H2.88623V20.8994Z" fill="#A44F3E"/>
<path d="M9.19178 18.9034V15.3359C9.19178 15.158 9.04766 15.0139 8.86985 15.0139H4.92985C4.75204 15.0139 4.60791 15.158 4.60791 15.3359V18.9034C4.60791 19.0812 4.75204 19.2254 4.92985 19.2254H8.86985C9.04766 19.2253 9.19178 19.0812 9.19178 18.9034Z" fill="white"/>
<path d="M5.95579 18.9034V15.3359C5.95579 15.158 6.09991 15.0139 6.27772 15.0139H4.92985C4.75204 15.0139 4.60791 15.158 4.60791 15.3359V18.9034C4.60791 19.0812 4.75204 19.2254 4.92985 19.2254H6.27772C6.09991 19.2254 5.95579 19.0812 5.95579 18.9034Z" fill="#F3F0FF"/>
<path d="M8.86991 19.694H4.92985C4.49385 19.694 4.13916 19.3394 4.13916 18.9034V15.3359C4.13916 14.8999 4.49385 14.5452 4.92985 14.5452H8.86991C9.30591 14.5452 9.6606 14.8999 9.6606 15.3359V18.9034C9.6606 19.3394 9.30591 19.694 8.86991 19.694ZM5.07672 18.7565H8.7231V15.4826H5.07672V18.7565Z" fill="#6D3326"/>
<path d="M8.53418 20.8994H9.47168V26.9749H8.53418V20.8994Z" fill="#6D3326"/>
<path d="M4.32812 20.8994H5.26562V26.9749H4.32812V20.8994Z" fill="#6D3326"/>
<path d="M6.43115 20.8994H7.36865V26.9749H6.43115V20.8994Z" fill="#6D3326"/>
<path d="M24.4667 7.85521H7.53312C7.35531 7.85521 7.21118 7.71108 7.21118 7.53327V2.96183C7.21118 2.78402 7.35531 2.63989 7.53312 2.63989H24.4667C24.6446 2.63989 24.7887 2.78402 24.7887 2.96183V7.53327C24.7887 7.71108 24.6446 7.85521 24.4667 7.85521Z" fill="#FFE5C2"/>
<path d="M9.32187 6.71539C9.14406 6.71539 8.99993 6.57127 8.99993 6.39346V2.63989H7.53312C7.35531 2.63989 7.21118 2.78402 7.21118 2.96183V7.53327C7.21118 7.71108 7.35531 7.85521 7.53312 7.85521H24.4667C24.6446 7.85521 24.7887 7.71108 24.7887 7.53327V6.71533L9.32187 6.71539Z" fill="#FED2A4"/>
<path d="M20.507 4.9436H11.4929C11.234 4.9436 11.0242 4.73379 11.0242 4.47485C11.0242 4.21592 11.234 4.0061 11.4929 4.0061H20.507C20.7659 4.0061 20.9757 4.21592 20.9757 4.47485C20.9757 4.73379 20.7659 4.9436 20.507 4.9436Z" fill="#F6A96C"/>
<path d="M18.7687 6.48877H13.2314C12.9726 6.48877 12.7627 6.27896 12.7627 6.02002C12.7627 5.76108 12.9726 5.55127 13.2314 5.55127H18.7687C19.0276 5.55127 19.2374 5.76108 19.2374 6.02002C19.2374 6.27896 19.0276 6.48877 18.7687 6.48877Z" fill="#F6A96C"/>
<path d="M31.6781 29.3604H29.2314V26.6247C29.2314 26.4469 29.3756 26.3027 29.5534 26.3027H31.6781C31.8559 26.3027 32.0001 26.4469 32.0001 26.6247V29.0384C32.0001 29.2162 31.8559 29.3604 31.6781 29.3604Z" fill="#FD5426"/>
<path d="M31.4207 15.0119V13.695C31.4207 13.5102 31.2708 13.3604 31.086 13.3604H30.1457C29.9608 13.3604 29.811 13.5102 29.811 13.695V15.0119H31.4207Z" fill="#554E6F"/>
<path d="M29.811 20.2078V21.5246C29.811 21.7095 29.9609 21.8593 30.1457 21.8593H31.086C31.2708 21.8593 31.4207 21.7094 31.4207 21.5246V20.2078H29.811Z" fill="#554E6F"/>
<path d="M30.4377 14.9494V13.695C30.4377 13.5102 30.5875 13.3604 30.7723 13.3604H30.1457C29.9608 13.3604 29.811 13.5102 29.811 13.695V14.9494H30.4377Z" fill="#433F5C"/>
<path d="M30.4377 21.5246V20.2703H29.811V21.5246C29.811 21.7095 29.9609 21.8593 30.1457 21.8593H30.7723C30.5875 21.8593 30.4377 21.7095 30.4377 21.5246Z" fill="#433F5C"/>
<path d="M31.6528 20.2703H29.5788C29.3869 20.2703 29.2314 20.1148 29.2314 19.923V15.2968C29.2314 15.105 29.3869 14.9495 29.5788 14.9495H31.6528C31.8446 14.9495 32.0001 15.105 32.0001 15.2968V19.923C32.0001 20.1148 31.8446 20.2703 31.6528 20.2703Z" fill="#FD5426"/>
<path d="M30.5439 19.923V15.2968C30.5439 15.105 30.6994 14.9495 30.8913 14.9495H29.5788C29.3869 14.9495 29.2314 15.105 29.2314 15.2968V19.923C29.2314 20.1148 29.3869 20.2703 29.5788 20.2703H30.8913C30.6994 20.2703 30.5439 20.1148 30.5439 19.923Z" fill="#EF4424"/>
</g>
<defs>
<clipPath id="clip0_56_3934">
<rect width="32" height="32" fill="white"/>
</clipPath>
</defs>
</svg>
