<svg width="20" height="20" viewBox="0 0 20 20" fill="none" xmlns="http://www.w3.org/2000/svg">
<path d="M12.5013 2.50537V8.3328" stroke="#090B09" stroke-width="1.25" stroke-linecap="round" stroke-linejoin="round"/>
<path d="M7.49887 3.98096V15.8359" stroke="#090B09" stroke-width="1.25" stroke-linecap="round" stroke-linejoin="round"/>
<path d="M17.5033 9.16641V4.67537C17.5033 4.31606 17.2741 3.99759 16.9331 3.88421L13.0281 2.58284C12.6863 2.46862 12.3162 2.46862 11.9735 2.582L8.02604 3.89755C7.6834 4.01176 7.31408 4.01176 6.97143 3.89755L3.59419 2.77208C3.0548 2.59201 2.49707 2.99384 2.49707 3.56324V13.0163C2.49707 13.3323 2.67548 13.6208 2.9581 13.7625L6.75384 15.6599C7.22321 15.895 7.77594 15.895 8.2453 15.6599L10.0002 14.7821" stroke="#090B09" stroke-width="1.25" stroke-linecap="round" stroke-linejoin="round"/>
<path d="M18.3368 16.6696L16.7837 15.1165" stroke="#090B09" stroke-width="1.25" stroke-linecap="round" stroke-linejoin="round"/>
<path d="M15.002 10.834C16.3834 10.834 17.5031 11.9536 17.5031 13.335C17.5031 14.7164 16.3834 15.8361 15.002 15.8361C13.6206 15.8361 12.501 14.7164 12.501 13.335C12.501 11.9536 13.6206 10.834 15.002 10.834" stroke="#090B09" stroke-width="1.25" stroke-linecap="round" stroke-linejoin="round"/>
</svg>
