<svg width="28" height="28" viewBox="0 0 28 28" fill="none" xmlns="http://www.w3.org/2000/svg">
<path d="M25.7463 9.19519L22.6674 11.8202L23.5894 15.7282C23.6544 16.0021 23.6371 16.2891 23.5399 16.5533C23.4426 16.8174 23.2696 17.0471 23.0425 17.2135C22.8129 17.3821 22.5386 17.4793 22.254 17.493C21.9694 17.5066 21.6871 17.436 21.4424 17.29L17.9424 15.2119L14.4424 17.29C14.1977 17.436 13.9153 17.5066 13.6307 17.493C13.3461 17.4793 13.0719 17.3821 12.8422 17.2135C12.6152 17.047 12.4423 16.8173 12.3451 16.5532C12.2478 16.289 12.2305 16.0021 12.2953 15.7282L13.2174 11.8202L10.1374 9.19519C9.92183 9.01122 9.76555 8.76759 9.68818 8.49498C9.61082 8.22237 9.61584 7.93297 9.7026 7.66321C9.78936 7.39345 9.954 7.15538 10.1758 6.97898C10.3976 6.80259 10.6666 6.69575 10.9489 6.67191L15.021 6.32738L16.6091 2.62504C16.7212 2.36548 16.9068 2.14442 17.143 1.98911C17.3793 1.8338 17.6558 1.75104 17.9385 1.75104C18.2213 1.75104 18.4978 1.8338 18.734 1.98911C18.9703 2.14442 19.1559 2.36548 19.268 2.62504L20.8561 6.32957L24.9271 6.67191C25.2101 6.69412 25.4802 6.79978 25.7031 6.97553C25.9261 7.15127 26.0919 7.3892 26.1796 7.65922C26.2673 7.92923 26.2729 8.21918 26.1958 8.4924C26.1187 8.76562 25.9622 9.00982 25.7463 9.1941V9.19519ZM9.36955 12.506C9.28829 12.4246 9.19178 12.3601 9.08556 12.316C8.97934 12.272 8.86548 12.2493 8.75049 12.2493C8.6355 12.2493 8.52164 12.272 8.41541 12.316C8.30919 12.3601 8.21269 12.4246 8.13142 12.506L2.00642 18.631C1.84224 18.7952 1.75 19.0178 1.75 19.25C1.75 19.4822 1.84224 19.7049 2.00642 19.8691C2.17061 20.0333 2.39329 20.1255 2.62549 20.1255C2.85768 20.1255 3.08036 20.0333 3.24455 19.8691L9.36955 13.7441C9.4509 13.6628 9.51544 13.5663 9.55948 13.4601C9.60351 13.3539 9.62618 13.24 9.62618 13.125C9.62618 13.01 9.60351 12.8962 9.55948 12.79C9.51544 12.6837 9.4509 12.5872 9.36955 12.506ZM11.1195 18.631C11.0383 18.5496 10.9418 18.4851 10.8356 18.441C10.7293 18.397 10.6155 18.3743 10.5005 18.3743C10.3855 18.3743 10.2716 18.397 10.1654 18.441C10.0592 18.4851 9.96269 18.5496 9.88142 18.631L3.75642 24.756C3.67513 24.8373 3.61064 24.9338 3.56664 25.04C3.52265 25.1462 3.5 25.2601 3.5 25.375C3.5 25.49 3.52265 25.6038 3.56664 25.7101C3.61064 25.8163 3.67513 25.9128 3.75642 25.9941C3.92061 26.1583 4.14329 26.2505 4.37549 26.2505C4.49046 26.2505 4.6043 26.2279 4.71052 26.1839C4.81674 26.1399 4.91325 26.0754 4.99455 25.9941L11.1195 19.8691C11.2009 19.7878 11.2654 19.6913 11.3095 19.5851C11.3535 19.4789 11.3762 19.365 11.3762 19.25C11.3762 19.135 11.3535 19.0212 11.3095 18.915C11.2654 18.8087 11.2009 18.7122 11.1195 18.631ZM17.7575 18.631L11.6325 24.756C11.4683 24.9202 11.3761 25.1428 11.3761 25.375C11.3761 25.6072 11.4683 25.8299 11.6325 25.9941C11.7967 26.1583 12.0194 26.2505 12.2516 26.2505C12.4838 26.2505 12.7065 26.1583 12.8706 25.9941L18.9956 19.8691C19.1598 19.7051 19.2521 19.4825 19.2522 19.2504C19.2523 19.0183 19.1602 18.7957 18.9962 18.6315C18.8322 18.4673 18.6096 18.375 18.3775 18.3749C18.1454 18.3748 17.9228 18.4669 17.7586 18.631H17.7575Z" fill="#144A19"/>
</svg>
