<svg width="22" height="22" viewBox="0 0 22 22" fill="none" xmlns="http://www.w3.org/2000/svg">
<path d="M3.86825 9.98242V19.1491" stroke="black" stroke-width="1.375" stroke-linecap="round" stroke-linejoin="round"/>
<path d="M18.1317 9.98242V19.1491" stroke="black" stroke-width="1.375" stroke-linecap="round" stroke-linejoin="round"/>
<path d="M13.0368 19.1486V15.0749C13.0368 13.9502 12.1247 13.0381 11 13.0381C9.87522 13.0381 8.96313 13.9502 8.96313 15.0749V19.1486" stroke="black" stroke-width="1.375" stroke-linecap="round" stroke-linejoin="round"/>
<path d="M1.83325 19.1493H20.1666" stroke="black" stroke-width="1.375" stroke-linecap="round" stroke-linejoin="round"/>
<path fill-rule="evenodd" clip-rule="evenodd" d="M3.94261 9.9814C2.38611 9.9704 1.37136 8.42948 2.04603 7.10123L3.61811 4.00565C3.97653 3.29981 4.73003 2.85156 5.55686 2.85156H16.4432C17.27 2.85156 18.0235 3.29981 18.3819 4.00565L19.9549 7.10123C20.6296 8.42948 19.6149 9.9704 18.0584 9.9814C16.7594 9.9814 15.7062 9.09406 15.7062 7.99865V7.95465C15.7062 9.0739 14.6529 9.9814 13.354 9.9814C12.0551 9.9814 11.0019 9.0739 11.0019 7.95465C11.0019 9.0739 9.94861 9.9814 8.64969 9.9814C7.35078 9.9814 6.29753 9.0739 6.29753 7.95465V7.99865C6.29478 9.09406 5.24153 9.9814 3.94261 9.9814Z" stroke="black" stroke-width="1.375" stroke-linecap="round" stroke-linejoin="round"/>
</svg>
