<svg width="14" height="13" viewBox="0 0 14 13" fill="none" xmlns="http://www.w3.org/2000/svg">
<path d="M8.33402 1.91814L9.28389 3.81789C9.41342 4.08234 9.75883 4.336 10.0503 4.38457L11.7719 4.67061C12.8729 4.85411 13.132 5.65287 12.3386 6.44083L11.0001 7.77929C10.7735 8.00597 10.6493 8.44312 10.7195 8.75615L11.1027 10.413C11.4049 11.7245 10.7087 12.2318 9.54835 11.5464L7.93464 10.5911C7.6432 10.4184 7.16287 10.4184 6.86603 10.5911L5.25233 11.5464C4.09737 12.2318 3.39576 11.7191 3.69799 10.413L4.08118 8.75615C4.15134 8.44312 4.02721 8.00597 3.80053 7.77929L2.46208 6.44083C1.67411 5.65287 1.92777 4.85411 3.02876 4.67061L4.75041 4.38457C5.03645 4.336 5.38186 4.08234 5.51139 3.81789L6.46126 1.91814C6.97937 0.887312 7.8213 0.887312 8.33402 1.91814Z" fill="#F48E2F"/>
</svg>
