<svg width="128" height="127" viewBox="0 0 128 127" fill="none" xmlns="http://www.w3.org/2000/svg">
<path d="M120.85 25.5146L124.225 31.3603" stroke="#D6D8D6" stroke-width="1.40625" stroke-linecap="round"/>
<path d="M125.46 26.75L119.614 30.125" stroke="#D6D8D6" stroke-width="1.40625" stroke-linecap="round"/>
<path d="M122.418 98.6099C123.97 98.6099 125.23 99.8699 125.23 101.422C125.23 102.975 123.97 104.235 122.418 104.235C120.865 104.235 119.605 102.975 119.605 101.422C119.605 99.8699 120.865 98.6099 122.418 98.6099Z" fill="#D6D8D6"/>
<path d="M108.355 115.485C111.463 115.485 113.98 118.002 113.98 121.11C113.98 124.218 111.463 126.735 108.355 126.735C105.248 126.735 102.73 124.218 102.73 121.11C102.73 118.002 105.248 115.485 108.355 115.485Z" fill="#144A19"/>
<path d="M102.73 0.172363C104.283 0.172363 105.543 1.43236 105.543 2.98486C105.543 4.53736 104.283 5.79736 102.73 5.79736C101.178 5.79736 99.918 4.53736 99.918 2.98486C99.918 1.43236 101.178 0.172363 102.73 0.172363Z" fill="#D6D8D6"/>
<circle cx="63.2344" cy="65.0005" r="53.4375" fill="#144A19"/>
<path d="M86.1367 47.8242L54.6467 79.3142L40.3331 65.0006" stroke="#E8EDF2" stroke-width="8.90625" stroke-linecap="round" stroke-linejoin="round"/>
<path d="M21.168 121.11C22.7205 121.11 23.9805 122.37 23.9805 123.922C23.9805 125.475 22.7205 126.735 21.168 126.735C19.6152 126.735 18.3555 125.475 18.3555 123.922C18.3555 122.37 19.6152 121.11 21.168 121.11Z" fill="#D6D8D6"/>
<path d="M14.1367 5.79736C18.0208 5.79736 21.168 8.94455 21.168 12.8286C21.168 16.7127 18.0208 19.8599 14.1367 19.8599C10.2524 19.8599 7.10547 16.7127 7.10547 12.8286C7.10547 8.94455 10.2524 5.79736 14.1367 5.79736Z" fill="#144A19"/>
<path d="M4.29297 28.2974C5.84547 28.2974 7.10547 29.5574 7.10547 31.1099C7.10547 32.6624 5.84547 33.9224 4.29297 33.9224C2.74019 33.9224 1.48047 32.6624 1.48047 31.1099C1.48047 29.5574 2.74019 28.2974 4.29297 28.2974Z" fill="#D6D8D6"/>
<path d="M5.28516 98.3022L3.53813 104.822" stroke="#D6D8D6" stroke-width="1.40625" stroke-linecap="round"/>
<path d="M7.67188 102.436L1.15188 100.689" stroke="#D6D8D6" stroke-width="1.40625" stroke-linecap="round"/>
</svg>
