<svg width="33" height="32" viewBox="0 0 33 32" fill="none" xmlns="http://www.w3.org/2000/svg">
<g clip-path="url(#clip0_56_4014)">
<path d="M2.14746 8.51147V29.9001C2.14746 30.0422 2.2627 30.1577 2.40503 30.1577H30.595C30.7373 30.1577 30.8525 30.0422 30.8525 29.9001V8.51147H2.14746Z" fill="#ED5176"/>
<path d="M2.14746 15.8467H30.8525V17.2998H2.14746V15.8467Z" fill="#BA365F"/>
<path d="M2.14746 8.51147H30.8525V9.9646H2.14746V8.51147Z" fill="#BA365F"/>
<path d="M11.4016 8.51147V9.97485C11.4016 11.0059 12.2373 11.8416 13.2683 11.8416H21.1526C22.4834 11.8416 23.5623 10.7627 23.5623 9.43188V8.51147H11.4016Z" fill="#BA365F"/>
<path d="M29.3342 8.51147V29.9001C29.3342 30.0422 29.219 30.1577 29.0767 30.1577H30.595C30.7373 30.1577 30.8525 30.0422 30.8525 29.9001V8.51147H29.3342Z" fill="#BA365F"/>
<path d="M13.0669 20.5356V30.1577H19.9331V20.5356C19.9331 20.1799 19.6448 19.8916 19.2891 19.8916H13.7107C13.3552 19.8916 13.0669 20.1799 13.0669 20.5356Z" fill="#6A7193"/>
<path d="M14.0488 21.5183C14.0488 21.1626 14.3372 20.8743 14.6929 20.8743H19.9331V20.5356C19.9331 20.1799 19.6448 19.8916 19.2893 19.8916H13.7109C13.3552 19.8916 13.0669 20.1799 13.0669 20.5356V30.1577H14.0488V21.5183Z" fill="#575B7A"/>
<path d="M0.540039 12.9607V15.5891C0.540039 15.7314 0.655273 15.8467 0.797607 15.8467H32.2024C32.3447 15.8467 32.46 15.7314 32.46 15.5891V12.9607C32.46 12.8184 32.3447 12.7031 32.2024 12.7031H0.797607C0.655273 12.7031 0.540039 12.8184 0.540039 12.9607Z" fill="#C8E7F7"/>
<path d="M32.2024 12.7031H30.6899C30.8323 12.7031 30.9475 12.8184 30.9475 12.9607V15.5894C30.9475 15.7314 30.8323 15.8469 30.6899 15.8469H32.2024C32.3447 15.8469 32.46 15.7314 32.46 15.5894V12.9607C32.46 12.8184 32.3447 12.7031 32.2024 12.7031Z" fill="#8CBCD6"/>
<path d="M22.0374 21.4692V26.7388C22.0374 27.0398 22.2815 27.2839 22.5825 27.2839H28.5586C28.8599 27.2839 29.1038 27.0398 29.1038 26.7388V21.4692C29.1038 21.168 28.8599 20.9241 28.5586 20.9241H22.5825C22.2813 20.9238 22.0374 21.168 22.0374 21.4692Z" fill="#C8E7F7"/>
<path d="M3.89624 21.4692V26.7388C3.89624 27.0398 4.14014 27.2839 4.44141 27.2839H10.4175C10.7188 27.2839 10.9626 27.0398 10.9626 26.7388V21.4692C10.9626 21.168 10.7185 20.9241 10.4175 20.9241H4.44141C4.14014 20.9238 3.89624 21.168 3.89624 21.4692Z" fill="#C8E7F7"/>
<path d="M32.5 7.09277V5.91187H0.5V7.09277C1.28345 7.09277 1.9187 7.72803 1.9187 8.51147H31.0813C31.0813 7.72803 31.7166 7.09277 32.5 7.09277Z" fill="#C8E7F7"/>
<path d="M11.4016 5.91187H23.5623V8.51147H11.4016V5.91187Z" fill="#8CBCD6"/>
<path d="M30.9875 5.91187V7.09277C30.2039 7.09277 29.5686 7.72803 29.5686 8.51147H31.0813C31.0813 7.72803 31.7166 7.09277 32.5 7.09277V5.91187H30.9875Z" fill="#8CBCD6"/>
<path d="M10.4197 3.7417V9.01074C10.4197 10.0415 11.2554 10.8774 12.2864 10.8774H20.7136C21.7444 10.8774 22.5803 10.0415 22.5803 9.01074V3.7417C22.5803 2.71069 21.7444 1.875 20.7136 1.875H12.2864C11.2554 1.875 10.4197 2.71069 10.4197 3.7417Z" fill="#FFEB96"/>
<path d="M14.6328 25.4934H14.2463C13.9875 25.4934 13.7776 25.2834 13.7776 25.0247C13.7776 24.7659 13.9875 24.5559 14.2463 24.5559H14.6328C14.8918 24.5559 15.1016 24.7659 15.1016 25.0247C15.1016 25.2834 14.8918 25.4934 14.6328 25.4934Z" fill="#252D4C"/>
<path d="M18.3025 8.14429H15.4348C14.8667 8.14429 14.3701 7.74072 14.2539 7.18457L13.6443 4.271H13.0413C12.7822 4.271 12.5725 4.06104 12.5725 3.80225C12.5725 3.54346 12.7822 3.3335 13.0413 3.3335H13.6443C14.0857 3.3335 14.4717 3.64722 14.562 4.0791L15.1714 6.99268C15.1973 7.1167 15.3081 7.20679 15.4348 7.20679H18.3025C18.4136 7.20679 18.5149 7.13672 18.5542 7.03271L19.4116 4.76294H15.6099C15.3508 4.76294 15.1411 4.55298 15.1411 4.29419C15.1411 4.0354 15.3508 3.82544 15.6099 3.82544H19.6653C19.9155 3.82544 20.1499 3.94849 20.2922 4.1543C20.4346 4.36011 20.4668 4.6228 20.3782 4.85693L19.4312 7.36401C19.2549 7.83057 18.8013 8.14429 18.3025 8.14429Z" fill="#5692D8"/>
<path d="M15.5181 9.51514H15.3894C15.1304 9.51514 14.9207 9.30542 14.9207 9.04639C14.9207 8.7876 15.1304 8.57764 15.3894 8.57764H15.5181C15.7771 8.57764 15.9868 8.7876 15.9868 9.04639C15.9868 9.30542 15.7771 9.51514 15.5181 9.51514Z" fill="#5692D8"/>
<path d="M17.6106 9.51514H17.4819C17.2229 9.51514 17.0132 9.30542 17.0132 9.04639C17.0132 8.7876 17.2229 8.57764 17.4819 8.57764H17.6106C17.8696 8.57764 18.0793 8.7876 18.0793 9.04639C18.0793 9.30542 17.8696 9.51514 17.6106 9.51514Z" fill="#5692D8"/>
</g>
<defs>
<clipPath id="clip0_56_4014">
<rect width="32" height="32" fill="white" transform="translate(0.5)"/>
</clipPath>
</defs>
</svg>
