<svg width="14" height="9" viewBox="0 0 14 9" fill="none" xmlns="http://www.w3.org/2000/svg">
<path d="M13.9996 0.5V4.5C13.9996 4.63261 13.9469 4.75979 13.8532 4.85355C13.7594 4.94732 13.6322 5 13.4996 5C13.367 5 13.2398 4.94732 13.1461 4.85355C13.0523 4.75979 12.9996 4.63261 12.9996 4.5V1.70687L7.85336 6.85375C7.80692 6.90024 7.75178 6.93712 7.69108 6.96228C7.63038 6.98744 7.56531 7.00039 7.49961 7.00039C7.4339 7.00039 7.36884 6.98744 7.30814 6.96228C7.24744 6.93712 7.19229 6.90024 7.14586 6.85375L4.99961 4.70687L0.853357 8.85375C0.759536 8.94757 0.632289 9.00028 0.499607 9.00028C0.366925 9.00028 0.239677 8.94757 0.145857 8.85375C0.0520363 8.75993 -0.000671387 8.63268 -0.000671387 8.5C-0.000671387 8.36732 0.0520363 8.24007 0.145857 8.14625L4.64586 3.64625C4.69229 3.59976 4.74744 3.56288 4.80814 3.53772C4.86884 3.51256 4.9339 3.49961 4.99961 3.49961C5.06531 3.49961 5.13038 3.51256 5.19108 3.53772C5.25178 3.56288 5.30692 3.59976 5.35336 3.64625L7.49961 5.79313L12.2927 1H9.49961C9.367 1 9.23982 0.947321 9.14605 0.853553C9.05229 0.759785 8.99961 0.632608 8.99961 0.5C8.99961 0.367392 9.05229 0.240215 9.14605 0.146447C9.23982 0.0526785 9.367 0 9.49961 0H13.4996C13.6322 0 13.7594 0.0526785 13.8532 0.146447C13.9469 0.240215 13.9996 0.367392 13.9996 0.5Z" fill="#090B09"/>
</svg>
