<svg width="25" height="23" viewBox="0 0 25 23" fill="none" xmlns="http://www.w3.org/2000/svg">
<path fill-rule="evenodd" clip-rule="evenodd" d="M14.1165 0.172945C15.5241 -0.150514 17.0468 0.329979 17.822 1.56701C18.0212 1.88476 18.2394 2.25521 18.4705 2.68165C16.8495 2.58169 14.4453 2.48708 11.1505 2.48708C9.29223 2.48708 7.71722 2.51718 6.40623 2.56135C8.87159 1.60076 11.5547 0.761659 14.1165 0.172945ZM3.71278 21.9607C5.30051 22.0632 7.73904 22.1655 11.1507 22.1655C14.5622 22.1655 17.0008 22.0632 18.5886 21.9607C20.3375 21.8477 21.7171 20.6071 21.8607 18.9606C21.8881 18.646 21.9151 18.2959 21.9405 17.909C21.4451 17.9224 20.873 17.9309 20.2196 17.9309C19.3264 17.9309 18.5853 17.9149 17.9845 17.8924C16.0431 17.8197 14.4757 16.4315 14.3874 14.5712C14.3658 14.1164 14.3515 13.5776 14.3515 12.949C14.3515 12.3205 14.3658 11.7817 14.3874 11.3269C14.4757 9.46655 16.0431 8.07835 17.9845 8.00566C18.5853 7.98314 19.3264 7.96715 20.2196 7.96715C20.873 7.96715 21.4451 7.97572 21.9405 7.98912C21.9151 7.60218 21.8881 7.25205 21.8607 6.9375C21.7171 5.29093 20.3375 4.0504 18.5886 3.93741C17.0008 3.83484 14.5623 3.73255 11.1507 3.73255C7.73904 3.73255 5.30051 3.83484 3.71278 3.93741C1.96384 4.0504 0.58426 5.29093 0.440704 6.9375C0.324403 8.2715 0.2146 10.2465 0.2146 12.949C0.2146 15.6516 0.324403 17.6266 0.440704 18.9606C0.58426 20.6071 1.96384 21.8477 3.71278 21.9607ZM15.9862 14.505C16.0366 15.5658 16.9125 16.3565 18.0486 16.3991C18.6271 16.4207 19.3468 16.4364 20.2196 16.4364C21.0924 16.4364 21.8121 16.4207 22.3906 16.3991C23.5267 16.3565 24.4026 15.5658 24.453 14.505C24.4735 14.0731 24.4873 13.5564 24.4873 12.949C24.4873 12.3417 24.4735 11.825 24.453 11.393C24.4026 10.3323 23.5267 9.54153 22.3906 9.49903C21.8121 9.47736 21.0924 9.46172 20.2196 9.46172C19.3468 9.46172 18.6271 9.47736 18.0486 9.49898C16.9125 9.54153 16.0366 10.3323 15.9862 11.393C15.9657 11.825 15.9519 12.3417 15.9519 12.949C15.9519 13.5564 15.9657 14.0731 15.9862 14.505ZM19.6861 11.7036C20.1281 11.7036 20.4863 12.0381 20.4863 12.4508V13.4472C20.4863 13.8599 20.1281 14.1945 19.6861 14.1945C19.2442 14.1945 18.8859 13.8599 18.8859 13.4472V12.4508C18.8859 12.0381 19.2442 11.7036 19.6861 11.7036Z" fill="black"/>
</svg>
